<svg width="963" height="226" viewBox="0 0 963 226" fill="none" xmlns="http://www.w3.org/2000/svg">
<path fill-rule="evenodd" clip-rule="evenodd" d="M935.068 0.669115C930.108 1.85211 925.222 5.35211 922.094 9.96411C919.504 13.7821 919.21 15.0391 919.21 22.3001C919.21 29.6131 919.49 30.7901 922.14 34.6141C926.625 41.0861 932.754 44.2311 940.71 44.1431C948.028 44.0631 951.602 42.5621 956.409 37.5501C971.803 21.5031 956.755 -4.50289 935.068 0.669115ZM98.2101 1.85211C65.6111 5.97011 36.3031 24.3221 18.3601 51.8531C0.928108 78.6001 -4.37889 111.122 3.67711 141.839C15.2421 185.933 52.8951 218.757 98.7101 224.683C102.835 225.217 130.056 225.667 159.202 225.684L212.193 225.715L189.778 203.283L167.363 180.852L132.787 180.481C99.8731 180.129 97.8971 180.001 91.7101 177.831C70.8471 170.513 55.0211 154.795 48.0401 134.46C45.5001 127.06 45.2101 124.883 45.2131 113.215C45.2161 102.296 45.5881 99.0951 47.5391 93.2151C54.4871 72.2711 70.3711 56.1151 90.9651 49.0451C98.3651 46.5051 100.542 46.2151 112.21 46.2181C123.12 46.2211 126.335 46.5941 132.21 48.5401C140.45 51.2691 148.507 55.5751 154.558 60.4831L158.907 64.0101L174.524 48.3931L190.142 32.7751L187.176 29.6521C182.484 24.7111 166.002 14.1871 156.776 10.2411C137.773 2.11311 118.265 -0.680885 98.2101 1.85211ZM290.339 2.28811C240.462 10.0451 202.251 49.3991 195.742 99.7151C192.99 120.99 197.164 144.512 207.164 164.083C224.073 197.174 256.482 219.867 293.71 224.683C314.985 227.435 338.507 223.261 358.078 213.261C391.169 196.352 413.862 163.943 418.678 126.715C421.43 105.44 417.256 81.9181 407.256 62.3471C385.252 19.2861 337.796 -5.09189 290.339 2.28811ZM532.21 1.85211C499.611 5.97011 470.303 24.3221 452.36 51.8531C431.948 83.1721 428.349 121.927 442.637 156.545C455.601 187.953 484.662 213.219 517.644 221.755C529.907 224.929 538.752 225.651 565.718 225.684L591.227 225.715L613.66 203.266L636.092 180.816L584.151 180.487C532.897 180.162 532.124 180.127 525.71 177.854C505.349 170.64 488.765 154.506 482.643 135.958C481.419 132.249 480.21 128.653 479.957 127.965C479.59 126.971 497.869 126.715 569.256 126.715H659.016L658.368 112.465C657.429 91.8231 654.581 79.5401 647.183 64.2151C641.952 53.3801 636.026 45.0161 626.733 35.3531C602.172 9.81511 567.225 -2.57089 532.21 1.85211ZM775.21 1.85211C742.611 5.97011 713.303 24.3221 695.36 51.8531C674.948 83.1721 671.349 121.927 685.637 156.545C704.087 201.244 752.068 230.015 799.572 224.863C828.47 221.729 850.585 211.011 870.32 190.577C890.717 169.457 901.574 141.55 901.679 109.965L901.71 100.715H860.949H820.188L803.21 117.715L786.232 134.715H819.579H852.927L852.249 137.465C851.015 142.473 844.706 152.605 838.917 158.876C831.556 166.85 820.836 173.821 810.455 177.385C803.055 179.925 800.878 180.215 789.21 180.212C778.291 180.209 775.09 179.837 769.21 177.886C748.266 170.938 732.11 155.054 725.04 134.46C722.5 127.06 722.21 124.883 722.213 113.215C722.216 102.296 722.588 99.0951 724.539 93.2151C731.487 72.2711 747.371 56.1151 767.965 49.0451C775.365 46.5051 777.542 46.2151 789.21 46.2181C800.12 46.2211 803.335 46.5941 809.21 48.5401C817.45 51.2691 825.507 55.5751 831.558 60.4831L835.907 64.0101L851.524 48.3931L867.142 32.7751L864.176 29.6521C859.484 24.7111 843.002 14.1871 833.776 10.2411C814.773 2.11311 795.265 -0.680885 775.21 1.85211ZM327.71 48.6981C348.233 55.5841 364.382 71.5861 371.38 91.9701C373.92 99.3701 374.21 101.547 374.207 113.215C374.204 124.134 373.832 127.335 371.881 133.215C364.933 154.159 349.049 170.315 328.455 177.385C321.055 179.925 318.878 180.215 307.21 180.212C296.291 180.209 293.09 179.837 287.21 177.886C266.266 170.938 250.11 155.054 243.04 134.46C240.5 127.06 240.21 124.883 240.213 113.215C240.216 102.296 240.588 99.0951 242.539 93.2151C250.54 69.0971 268.428 53.1741 295.21 46.3311C296.31 46.0501 302.61 45.9771 309.21 46.1681C318.172 46.4291 322.856 47.0691 327.71 48.6981ZM566.71 48.6981C581.587 53.6901 594.293 63.4701 602.81 76.4841C607.309 83.3581 610.439 90.3191 609.469 91.2891C609.227 91.5321 580.382 91.6141 545.37 91.4721L481.712 91.2151L485.803 83.0091C493.489 67.5941 508.466 54.5581 524.465 49.3591C535.672 45.7171 535.138 45.7881 548.21 46.1681C557.172 46.4291 561.856 47.0691 566.71 48.6981ZM940.451 76.4731L918.71 98.2321V161.473V224.715H940.71H962.71V139.715C962.71 92.9651 962.594 54.7151 962.451 54.7151C962.309 54.7151 952.409 64.5061 940.451 76.4731Z" fill="white"/>
</svg>
